<?xml version="1.0" encoding="utf-8"?>
<!-- Generator: Adobe Illustrator 25.1.0, SVG Export Plug-In . SVG Version: 6.00 Build 0)  -->
<svg version="1.1" id="Capa_1" xmlns="http://www.w3.org/2000/svg" xmlns:xlink="http://www.w3.org/1999/xlink" x="0px" y="0px"
	 viewBox="0 0 841.89 595.28" style="enable-background:new 0 0 841.89 595.28;" xml:space="preserve">
<style type="text/css">
	.st0{fill:none;stroke:#E5CBA5;stroke-width:7.4273;stroke-miterlimit:10;}
	.st1{fill:#E5CBA5;}
</style>
<circle class="st0" cx="385.19" cy="302.19" r="152.31"/>
<g>
	<path class="st1" d="M431.19,292.71c8.75,0,16.18-1.32,22.29-3.97c6.11-2.64,10.98-6.06,14.64-10.26
		c3.64-4.19,6.29-8.84,7.93-13.95c1.64-5.1,2.46-10.21,2.46-15.32c0-3.65-0.55-7.98-1.64-12.99c-1.09-5.01-3.28-9.85-6.57-14.5
		c-3.28-4.65-7.89-8.57-13.81-11.76c-5.93-3.19-13.81-4.79-23.66-4.79h-64.63l34.57,87.53H431.19z"/>
	<polygon class="st1" points="350.5,379.45 350.5,311.86 350.5,225.27 288.07,379.45 	"/>
	<path class="st1" d="M394.57,303.1h-32.03v8.75c0,3.83,0.23,8.3,0.68,13.4c0.45,5.11,1.37,10.35,2.74,15.73
		c1.37,5.38,3.37,10.67,6.02,15.86c2.64,5.2,6.24,9.85,10.8,13.95c4.56,4.1,10.17,7.39,16.82,9.85c6.65,2.46,14.72,3.69,24.21,3.69
		c0.79,0,1.51-0.07,2.28-0.08l-22.33-56.81L394.57,303.1z"/>
	<path class="st1" d="M429.28,303.1h-22.4l31.67,80.2c5.75-0.83,10.95-2.13,15.48-4.02c8.11-3.37,14.68-8.21,19.69-14.5
		c5.01-6.29,8.62-13.9,10.81-22.84c2.19-8.93,3.28-18.97,3.28-30.09v-43.31c-2.58,8.22-6.97,15.11-13.27,20.61
		C463.88,298.45,448.79,303.1,429.28,303.1z"/>
	<path class="st1" d="M350.5,311.86v67.59h-62.43l62.43-154.18V311.86z M432.84,205.17c9.85,0,17.73,1.6,23.66,4.79
		c5.92,3.19,10.53,7.11,13.81,11.76c3.28,4.65,5.47,9.48,6.57,14.5c1.09,5.02,1.64,9.35,1.64,12.99c0,5.11-0.82,10.21-2.46,15.32
		c-1.64,5.11-4.29,9.76-7.93,13.95c-3.65,4.2-8.53,7.62-14.64,10.26c-6.11,2.65-13.54,3.97-22.29,3.97h-28.42l-34.57-87.53H432.84z
		 M423.81,384.34c-9.48,0-17.55-1.23-24.21-3.69c-6.66-2.46-12.27-5.74-16.82-9.85c-4.56-4.1-8.16-8.75-10.8-13.95
		c-2.65-5.2-4.65-10.48-6.02-15.86c-1.37-5.38-2.28-10.62-2.74-15.73c-0.46-5.1-0.68-9.57-0.68-13.4v-8.75h32.03l9.2,24.35
		l22.33,56.81C425.32,384.28,424.6,384.34,423.81,384.34z M487.82,311.86c0,11.12-1.09,21.16-3.28,30.09
		c-2.19,8.94-5.79,16.55-10.81,22.84c-5.02,6.29-11.58,11.13-19.69,14.5c-4.53,1.88-9.73,3.18-15.48,4.02l-31.67-80.2h22.4
		c19.51,0,34.6-4.65,45.27-13.95c6.3-5.49,10.69-12.38,13.27-20.61V311.86z"/>
</g>
</svg>
