<?xml version="1.0" encoding="utf-8"?>
<!-- Generator: Adobe Illustrator 25.2.1, SVG Export Plug-In . SVG Version: 6.00 Build 0)  -->
<svg version="1.1" id="Capa_1" xmlns="http://www.w3.org/2000/svg" xmlns:xlink="http://www.w3.org/1999/xlink" x="0px" y="0px"
	 viewBox="0 0 684.7 447.1" style="enable-background:new 0 0 684.7 447.1;" xml:space="preserve">
<style type="text/css">
	.st0{fill:#A27BA3;}
	.st1{fill:#4DA0A8;}
	.st2{fill:#9B533C;}
	.st3{fill:#D8A446;}
	.st4{fill:#6B8B60;}
</style>
<g id="s">
</g>
<g id="l">
</g>
<g id="e">
</g>
<g id="n">
</g>
<g id="ib">
</g>
<g id="ia">
</g>
<g id="b">
</g>
<g id="cara">
</g>
<g>
	<path class="st0" d="M577,233.1c0,0,24.2-6.7,51,8.5s0.4,32-11,29.2c-10.5-2.6-32-13.8-32.6,4.7s44.2-6.5,60.4,48.2
		s-52.5,80.1-87.6,68.3s-32.2-55.5-17.4-61.8c14.8-6.3,21.5,5.1,28,12.6c6.5,7.5,23.9,14.6,32.8,4c8.9-10.5-1.4-22.7-16.6-26.5
		s-39.8-16.9-34.3-49.9C554.9,239,577,233.1,577,233.1z"/>
	<path class="st1" d="M46.7,267.8c0.2-2.8,1.4-11.4,2.7-13.9c2.2-3.9,6.4-8.3,14.6-8.6c14.9-0.6,21.3,17,19.2,74.2
		c0,0-2.1,27.1,10.3,30.4c10.9,2.9,33,0,45.3,5.2c3,1.3,5.4,3.8,6.9,6.7c3,6.2,6.6,18-5,24.6c-18.2,10.3-63.6,3.5-76.9-6.7
		C51,370,39.4,365.5,46.7,267.8z"/>
	<path class="st2" d="M437.7,247.8c10-3.6,24.9-6.4,46.2-5.2c3.6,0.2,7.2,1,10.6,2.2c6.1,2.3,13.8,6.8,13,15
		c-1.2,13.4-6.1,15.8-18.2,16.4s-41.7-0.3-41,12.5c0.6,13.4,7.3,9.4,16.7,11.2s13.4,7,13.4,14.3c0,7-1.4,14.5-24.3,17.8
		c-2.9,0.4-6.1,1.1-8.4,2.9c-2.4,2-4,3.7-3.2,9c1,7.5,4,11,15.5,10.6c11.5-0.3,45.3-9.1,47.7,11.5c2.4,20.7-26.2,31-69,22.5
		c-38.6-7.7-39.2-76.9-23.2-117.5C417.9,260.4,426.6,251.7,437.7,247.8z"/>
	<path class="st3" d="M259.5,266.8c3.3-3.7,8.2-5.6,13.2-5.3c9.9,0.5,29.5,5.2,41.3,31.8c15.5,35,14.9,38.9,23.1,37.7
		c4.4-0.7,4.3-6.4,5.2-17.3c0.7-7.9,1.2-55.6,21.6-53.5s21.6,23.7,10,89.4c0,0-4.6,44.4-38.3,40.1s-36.8-52.9-45.3-62.3
		s-10.3,3-11.9,27.7s-2.4,44.1-23.4,38.6C235.9,388.7,237.4,291.9,259.5,266.8z"/>
	<path class="st4" d="M172.8,291.8c0.1-3.6,0.9-7.1,2.6-10.2c2.5-4.6,7.2-9.7,16-9.5c16.1,0.3,19.2,14.3,19.2,20.1
		c0,5.3,1,60.2-3.6,85.1c-0.9,4.7-2.4,8.8-5.8,12.2c-2.6,2.6-6.1,4.3-11,4.3c-11.3,0-16.4-8.5-17.6-17
		C170.9,364.9,172.2,305.9,172.8,291.8z"/>
	<path class="st4" d="M158.2,234.5c2.5-1.3,5.2-2.1,8-2.6c11.6-2.1,49.7-8.2,60.2,0c12.5,9.7-6.1,20.4-32.2,21.9
		c-26.4,1.5-41.7-0.3-42.3-8.2C151.4,239.7,154.1,236.6,158.2,234.5z"/>
	<path class="st1" d="M537,96.1c0.1-1.5,0.3-3,0.7-4.4c1.4-5.4,5.6-16.9,16.4-16.9c14.2,0,20.7,7.7,21.3,23.9
		c0.6,16.2,0,85-11.5,94.3c-3.2,2.6-5.9,3.4-9,3.6c-9,0.5-15.5-5.6-19-16C531.7,168.2,536.2,106.9,537,96.1z"/>
	<path class="st1" d="M519.2,52.6c-1.6-2.6-1.2-6.1,1-8.1c2.4-2.2,6-4.9,17.1-6.3c18.5-2.4,41.8-4.3,51.5,2.4s7.3,16.2-11,18.2
		C560.7,60.7,527.2,65.7,519.2,52.6z"/>
	<path class="st4" d="M495.8,110.3c0,0-5.7-8.1-14.2-15.4c0,0,2-37.3-28.4-49.9c-30.4-12.6-64.5,11.4-66.9,64
		c-2.4,52.7-3.6,81.1,16.6,78.2c0,0,11.4-2.4,13.8-8.9c0,0,26.8,25.5,59.6,11.3C509.2,175.5,518.5,143.5,495.8,110.3z M437.2,76.8
		c7.5,0,13.6,5.5,13.6,12.3c0,6.8-6.1,12.3-13.6,12.3s-13.6-5.5-13.6-12.3C423.6,82.3,429.7,76.8,437.2,76.8z M445.8,161.4
		c-12.8,0-23.2-7.8-23.2-17.4s10.4-17.4,23.2-17.4c12.8,0,23.2,7.8,23.2,17.4C469,153.5,458.6,161.4,445.8,161.4z"/>
	<circle class="st3" cx="253.8" cy="79" r="11"/>
	<circle class="st3" cx="313.1" cy="80" r="11"/>
	<path class="st3" d="M236.4,123.4c0,0,14.9,33.4,45.6,32.8c26.5-0.5,42-25.2,52.9-41.7s26.1-6.4,14.3,15.8
		c-11.9,22.2-31.1,49.6-74.8,46.5c-42.6-3-55.3-42.8-58.1-53.2c-1.2-4.6-2.1-11.9,4-15.5C224.8,105.5,232.2,114.2,236.4,123.4z"/>
	<path class="st2" d="M96,70.8c0,0,17.6-25.8,51.1-22.5c33.4,3.3,52.6,26.8,42.3,40.7c-8.8,11.9-26.9,2.3-32.3-0.9
		c-1.1-0.7-2.3-1.3-3.5-1.8c-1.4-0.6-3.2-1.4-3.2-1.4c-1-0.4-19.3-7.1-27.1,13.5c-6.6,17.5-13.6,44,6.8,53.1
		c7.8,3.5,17,2.5,24.4-1.8c0.5-0.3,0.9-0.5,1.4-0.8c5.2-3,33.5-3.3,27.7,22.5s-72.4,31.3-97-10.3C61.9,119.4,96,70.8,96,70.8z"/>
</g>
</svg>
