<svg height="512pt" viewBox="-22 0 512 512.00101" width="512pt" xmlns="http://www.w3.org/2000/svg"><path d="m169.75 386.527344s-10.96875 3.882812-25.019531 13.285156c-37.46875 25.0625-60.03125 67.070312-60.03125 112.1875h85.050781l27.234375-62.734375zm0 0" fill="#546e7a"/><path d="m165.335938 399.808594c2.816406-1.882813 5.503906-3.542969 8.011718-4.996094l-3.597656-8.285156s-10.96875 3.882812-25.019531 13.285156c-37.46875 25.0625-60.03125 67.070312-60.03125 112.1875h20.601562c0-45.117188 22.566407-87.128906 60.035157-112.191406zm0 0" fill="#455a64"/><path d="m323.875 399.808594c-14.050781-9.398438-25.019531-13.28125-25.019531-13.28125l-27.234375 62.734375 27.234375 62.738281h85.050781c0-45.117188-22.5625-87.128906-60.03125-112.191406zm0 0" fill="#546e7a"/><path d="m9.015625 213.183594c0-117.550782 101.0625-213.183594 225.289063-213.183594 124.222656 0 225.285156 95.632812 225.285156 213.183594zm0 0" fill="#d9712d"/><path d="m468.605469 230.9375c0 22.628906-18.34375 40.972656-40.972657 40.972656-22.628906 0-40.972656-18.34375-40.972656-40.972656s18.34375-40.972656 40.972656-40.972656c22.628907 0 40.972657 18.34375 40.972657 40.972656zm0 0" fill="#f2cda0"/><path d="m81.949219 230.9375c0 22.628906-18.347657 40.972656-40.976563 40.972656s-40.972656-18.34375-40.972656-40.972656 18.34375-40.972656 40.972656-40.972656 40.976563 18.34375 40.976563 40.972656zm0 0" fill="#f2cda0"/><path d="m429.878906 219.671875c.074219-2.152344.117188-4.316406.117188-6.492187 0-55.347657-26.109375-104.972657-67.410156-138.632813-31.722657-25.851563-75.84375-30.492187-111.992188-11.292969-10.105469 5.375-16.289062 10.132813-16.289062 10.132813s-6.1875-4.769531-16.300782-10.132813c-35.425781-18.820312-78.855468-15.089844-110.234375 9.894532-.105469.078124-.203125.152343-.300781.238281-21.070312 16.832031-38.28125 37.792969-50.230469 61.527343-11.945312 23.742188-18.628906 50.273438-18.628906 78.265626 0 2.175781.042969 4.339843.121094 6.492187l30.800781 68.605469 164.773438 55.523437 168.375-66.339843zm0 0" fill="#fdddb6"/><path d="m169.75 386.527344h129.105469v125.472656h-129.105469zm0 0" fill="#efedee"/><g fill="#e0e0e0"><path d="m169.75 449.265625 64.554688-52.496094-6.179688-10.242187h-58.375zm0 0"/><path d="m298.855469 449.265625-64.550781-52.496094 6.175781-10.242187h58.375zm0 0"/><path d="m226.578125 512v-115.230469c0-4.265625 3.457031-7.726562 7.726563-7.726562 4.265624 0 7.722656 3.460937 7.722656 7.726562v115.230469zm0 0"/></g><path d="m429.878906 219.671875c-3.644531 98.378906-89.8125 177.097656-195.574218 177.097656-105.765626 0-191.929688-78.722656-195.574219-177.097656 80.519531 92.839844 88.84375 22.824219 195.574219 7.105469 106.726562 15.71875 115.054687 85.734375 195.574218-7.105469zm0 0" fill="#ff8333"/><path d="m69.632812 219.671875c-.074218-2.152344-.117187-4.316406-.117187-6.492187 0-27.992188 6.683594-54.523438 18.625-78.265626 11.953125-23.734374 29.164063-44.695312 50.234375-61.527343.09375-.085938.191406-.160157.300781-.238281 13.917969-11.078126 30.207031-17.972657 47.113281-20.578126-2.691406-.414062-5.402343-.714843-8.117187-.914062-18.0625-1.308594-36.472656 2.277344-52.648437 10.441406-6.027344 3.042969-11.914063 6.804688-17.253907 11.050782-.035156.027343-.070312.058593-.105469.085937-.066406.050781-.132812.097656-.195312.15625-20.824219 16.632813-38.234375 37.699219-50.230469 61.523437-12.664062 25.144532-19.121093 53.339844-18.597656 81.488282 0 .042968.003906.085937.003906.128906.019531 1.050781.046875 2.097656.085938 3.140625l30.800781 68.605469 20.574219 6.933594c-12.199219-22.871094-19.46875-48.457032-20.472657-75.539063zm0 0" fill="#f2cda0"/><path d="m234.304688 269.28125c-8.75 0-16.960938-3.660156-22.539063-10.039062-2.808594-3.214844-2.480469-8.09375.734375-10.902344 3.210938-2.808594 8.09375-2.480469 10.902344.730468 2.640625 3.023438 6.613281 4.757813 10.902344 4.757813 4.285156 0 8.257812-1.734375 10.902343-4.757813 2.808594-3.210937 7.6875-3.539062 10.902344-.730468 3.210937 2.808594 3.539063 7.6875.730469 10.902344-5.578125 6.378906-13.789063 10.039062-22.535156 10.039062zm0 0" fill="#3a484a"/><path d="m122.871094 512v-41.601562c0-4.265626 3.457031-7.722657 7.722656-7.722657 4.269531 0 7.726562 3.457031 7.726562 7.722657v41.601562zm0 0" fill="#455a64"/><path d="m330.285156 512v-41.601562c0-4.265626 3.457032-7.722657 7.726563-7.722657 4.265625 0 7.726562 3.457031 7.726562 7.722657v41.601562zm0 0" fill="#455a64"/><path d="m129.523438 229.601562c-4.265626 0-7.726563-3.460937-7.726563-7.726562v-26.792969c0-4.269531 3.460937-7.726562 7.726563-7.726562 4.269531 0 7.726562 3.457031 7.726562 7.726562v26.792969c0 4.265625-3.457031 7.726562-7.726562 7.726562zm0 0" fill="#3a484a"/><path d="m119.832031 173.863281c-7.46875 0-13.523437 6.054688-13.523437 13.523438s6.054687 13.523437 13.523437 13.523437h19.382813c7.46875 0 13.523437-6.054687 13.523437-13.523437s-6.054687-13.523438-13.523437-13.523438zm0 0" fill="#f37f33"/><path d="m339.082031 229.601562c-4.265625 0-7.726562-3.460937-7.726562-7.726562v-26.792969c0-4.269531 3.460937-7.726562 7.726562-7.726562s7.726563 3.457031 7.726563 7.726562v26.792969c0 4.265625-3.460938 7.726562-7.726563 7.726562zm0 0" fill="#3a484a"/><path d="m348.773438 173.863281c7.46875 0 13.523437 6.054688 13.523437 13.523438s-6.054687 13.523437-13.523437 13.523437h-19.382813c-7.46875 0-13.523437-6.054687-13.523437-13.523437s6.054687-13.523438 13.523437-13.523438zm0 0" fill="#f37f33"/><path d="m74.359375 253.957031c-10.347656-7.4375-21.945313-18.507812-35.628906-34.285156.445312 12.074219 2.160156 24.136719 5.109375 35.855469 20.382812 80.972656 97.917968 141.242187 190.464844 141.242187h.113281c3.640625 0 7.285156-.105469 10.921875-.296875 1.375-.070312 3.0625-.464844 4.414062-.273437-86.207031-6.320313-156.730468-65.046875-175.394531-142.242188zm0 0" fill="#d9712d"/></svg>